Coordinates
version=1
nRows=8
nColumns=46
inDegrees=yes

Units are S.I. units (second, meters, Newtons, ...)
Angles are in degrees.

endheader
time	pelvis_tilt	pelvis_list	pelvis_rotation	pelvis_tx	pelvis_ty	pelvis_tz	bb_angle	bb_tx	bb_ty	bb_tz	hip_flexion_r	hip_adduction_r	hip_rotation_r	knee_angle_r	knee_angle_r_beta	ankle_angle_r	subtalar_angle_r	mtp_angle_r	crank_angle_r	hip_flexion_l	hip_adduction_l	hip_rotation_l	knee_angle_l	knee_angle_l_beta	ankle_angle_l	subtalar_angle_l	mtp_angle_l	crank_angle_l	lumbar_extension	lumbar_bending	lumbar_rotation	arm_flex_r	arm_add_r	arm_rot_r	elbow_flex_r	pro_sup_r	wrist_flex_r	wrist_dev_r	arm_flex_l	arm_add_l	arm_rot_l	elbow_flex_l	pro_sup_l	wrist_flex_l	wrist_dev_l
      2.50000000	    -23.59110377	     -9.23283520	     -8.42412118	      0.31998183	      1.14547883	     -0.26933738	      0.00000000	      0.50000000	      0.00000000	      0.25000000	     74.89158835	      5.47653102	     -2.01362962	    109.70377121	      1.91469201	     -8.38434173	     -4.53865502	      0.00000000	      0.00000000	     26.34369403	    -17.06465552	     -8.44278964	     21.18386406	      0.36972818	    -15.57381088	     -1.36551912	      0.00000000	      0.00000000	    -57.37382373	     -2.63706293	      9.61289553	     53.93344015	    -18.93944148	     20.39689384	     73.79966558	     50.53435240	      0.00000000	      0.00000000	     44.59223784	    -22.82639622	     15.84414337	     88.72012172	     51.29633722	      0.00000000	      0.00000000
      2.50500000	    -23.80783110	     -9.10288575	     -9.33107205	      0.31940982	      1.14823985	     -0.27001423	      0.00000000	      0.50000000	      0.00000000	      0.25000000	     75.83229899	      6.20024972	     -1.67844353	    109.36387072	      1.90875963	     -7.97734935	     -4.39455816	      0.00000000	      0.00000000	     25.72686703	    -17.17164514	     -9.00593190	     20.82357542	      0.36343995	    -17.06716024	     -1.63883725	      0.00000000	      0.00000000	    -57.61262840	     -2.98488624	      9.73907459	     54.80582927	    -18.95426640	     21.29071246	     73.63995257	     50.59276187	      0.00000000	      0.00000000	     44.52731987	    -22.95096289	     15.36044952	     88.69719889	     51.24925266	      0.00000000	      0.00000000
      2.51000000	    -24.34701358	     -9.16516981	    -10.00333153	      0.31895835	      1.15077206	     -0.27103530	      0.00000000	      0.50000000	      0.00000000	      0.25000000	     76.92872647	      6.68165368	     -1.79289739	    108.86663253	      1.90008118	     -7.60710236	     -4.49202521	      0.00000000	      0.00000000	     25.74496524	    -17.41484923	     -9.11790914	     20.83192450	      0.36358567	    -18.42952574	     -1.80471481	      0.00000000	      0.00000000	    -57.61548378	     -3.00584515	     10.08224823	     55.54443357	    -18.88115424	     21.52602698	     73.74859240	     50.62573409	      0.00000000	      0.00000000	     44.63282182	    -23.03898109	     15.09343749	     88.72124206	     51.22657413	      0.00000000	      0.00000000
      2.51500000	    -24.78998983	     -9.12393499	    -10.88178972	      0.31809199	      1.15351030	     -0.27175870	      0.00000000	      0.50000000	      0.00000000	      0.25000000	     77.90252334	      7.39990460	     -1.73903913	    108.20858711	      1.88859612	     -7.33760117	     -4.74082037	      0.00000000	      0.00000000	     25.74959992	    -17.62655389	     -9.36173230	     21.12547974	      0.36870918	    -19.74329401	     -2.60858797	      0.00000000	      0.00000000	    -57.68321533	     -3.27208394	     10.36197342	     56.30661821	    -18.98841949	     22.30889587	     73.76154665	     50.70160773	      0.00000000	      0.00000000	     44.52450503	    -23.01520493	     14.49745379	     88.75456787	     51.17805885	      0.00000000	      0.00000000
      2.52000000	    -25.18959379	     -9.07384340	    -11.64457640	      0.31743453	      1.15639375	     -0.27231849	      0.00000000	      0.50000000	      0.00000000	      0.25000000	     78.69005296	      8.04890588	     -1.74464610	    107.49275927	      1.87610257	     -6.67724127	     -4.90989481	      0.00000000	      0.00000000	     25.85031850	    -17.84431255	     -9.51611502	     21.66543847	      0.37813324	    -20.82235437	     -2.94592169	      0.00000000	      0.00000000	    -57.86470767	     -3.54897707	     10.61553102	     57.07094581	    -18.93551295	     22.47563674	     73.99013151	     50.74572347	      0.00000000	      0.00000000	     44.74682548	    -23.06226456	     14.18656985	     88.78011821	     51.14964137	      0.00000000	      0.00000000
      2.52500000	    -25.69544459	     -9.11164811	    -12.45447518	      0.31623746	      1.15912291	     -0.27325570	      0.00000000	      0.50000000	      0.00000000	      0.25000000	     79.48359205	      8.76375711	     -1.81173025	    106.55446437	      1.85972624	     -6.18068136	     -5.14196910	      0.00000000	      0.00000000	     26.28690006	    -18.13888671	     -9.42205186	     22.61614194	      0.39472614	    -21.73604740	     -3.90333687	      0.00000000	      0.00000000	    -57.96607098	     -3.67634062	     10.80936024	     58.09339852	    -19.42083344	     24.14976503	     74.26306059	     50.95353989	      0.00000000	      0.00000000	     44.40005853	    -22.77224175	     12.83578524	     89.12936448	     51.09495012	      0.00000000	      0.00000000
      2.53000000	    -26.03270706	     -8.94399284	    -13.14946974	      0.31521879	      1.16198120	     -0.27417549	      0.00000000	      0.50000000	      0.00000000	      0.25000000	     79.99815349	      9.34938018	     -1.66390487	    105.60781803	      1.84320414	     -5.32803955	     -5.39913767	      0.00000000	      0.00000000	     26.64248759	    -18.17368366	     -9.28459396	     23.67589659	      0.41322235	    -22.50933804	     -4.45970862	      0.00000000	      0.00000000	    -58.23259983	     -4.02891264	     10.90676576	     58.80145861	    -19.33915337	     24.09988935	     74.51648988	     50.97919508	      0.00000000	      0.00000000	     44.67387315	    -22.78380278	     12.68695477	     89.14203864	     51.07985687	      0.00000000	      0.00000000
      2.53500000	    -26.84826140	     -9.03144072	    -13.74301342	      0.31399148	      1.16430634	     -0.27528618	      0.00000000	      0.50000000	      0.00000000	      0.25000000	     80.78579750	      9.82094633	     -1.96007336	    104.35663027	      1.82136679	     -4.60134853	     -5.67355884	      0.00000000	      0.00000000	     27.86295305	    -18.48232010	     -8.69504946	     25.26808046	      0.44101120	    -23.35303349	     -5.86000141	      0.00000000	      0.00000000	    -58.02948547	     -3.90771553	     11.33993873	     59.35226738	    -19.47665843	     24.49482807	     74.95770691	     51.08447038	      0.00000000	      0.00000000	     44.65314100	    -22.49110205	     12.17640595	     89.18487842	     51.04338324	      0.00000000	      0.00000000
